<svg xmlns="http://www.w3.org/2000/svg" xmlns:xlink="http://www.w3.org/1999/xlink" xmlns:serif="http://www.serif.com/" fill="#fff" viewBox="0 0 64 80" version="1.1" xml:space="preserve" style="" x="0px" y="0px" fill-rule="evenodd" clip-rule="evenodd" stroke-linejoin="round" stroke-miterlimit="2"><g transform="matrix(1,0,0,1,-228,-499)"><path d="M251.994,537.016C251.654,536.915 251.32,536.773 251,536.588C249.428,535.681 248.596,533.982 248.715,532.285C247.018,532.404 245.319,531.572 244.412,530C243.504,528.428 243.633,526.541 244.585,525.131C243.055,524.385 242,522.815 242,521C242,519.185 243.055,517.615 244.585,516.869C243.633,515.459 243.504,513.572 244.412,512C245.319,510.428 247.018,509.596 248.715,509.715C248.596,508.018 249.428,506.319 251,505.412C252.572,504.504 254.459,504.633 255.869,505.585C256.615,504.055 258.185,503 260,503C261.815,503 263.385,504.055 264.131,505.585C265.541,504.633 267.428,504.504 269,505.412C270.572,506.319 271.404,508.018 271.285,509.715C272.982,509.596 274.681,510.428 275.588,512C276.496,513.572 276.367,515.459 275.415,516.869C276.945,517.615 278,519.185 278,521C278,522.815 276.945,524.385 275.415,525.131C276.367,526.541 276.496,528.428 275.588,530C274.681,531.572 272.982,532.404 271.285,532.285C271.404,533.982 270.572,535.681 269,536.588C268.68,536.773 268.346,536.915 268.006,537.016L269.995,557.905C270.028,558.242 269.887,558.572 269.623,558.783C269.358,558.993 269.005,559.056 268.684,558.949L260,556.054L251.316,558.949C250.995,559.056 250.642,558.993 250.377,558.783C250.113,558.572 249.972,558.242 250.005,557.905L251.994,537.016ZM266.01,537.15C265.341,537.047 264.697,536.798 264.131,536.415C263.855,536.981 263.466,537.482 262.994,537.889L262.994,537.89L264.962,555.6L267.859,556.566L266.01,537.15ZM257.006,537.889C256.534,537.482 256.145,536.981 255.869,536.415C255.303,536.798 254.659,537.047 253.99,537.15L252.141,556.566L255.038,555.6L257.006,537.89L257.006,537.889ZM258.91,538.87L257.128,554.903L259.684,554.051C259.889,553.983 260.111,553.983 260.316,554.051L262.872,554.903L261.09,538.87C260.741,538.955 260.376,539 260,539C259.624,539 259.259,538.955 258.91,538.87ZM255.541,508.093C255.768,508.484 256.229,508.676 256.666,508.558C257.103,508.441 257.407,508.045 257.407,507.593C257.407,506.162 258.569,505 260,505C261.431,505 262.593,506.162 262.593,507.593C262.593,508.045 262.897,508.441 263.334,508.558C263.771,508.676 264.232,508.484 264.459,508.093C265.174,506.853 266.761,506.428 268,507.144C269.239,507.859 269.664,509.446 268.949,510.685C268.723,511.077 268.788,511.572 269.108,511.892C269.428,512.212 269.923,512.277 270.315,512.051C271.554,511.336 273.141,511.761 273.856,513C274.572,514.239 274.147,515.826 272.907,516.541C272.516,516.768 272.324,517.229 272.442,517.666C272.559,518.103 272.955,518.407 273.407,518.407C274.838,518.407 276,519.569 276,521C276,522.431 274.838,523.593 273.407,523.593C272.955,523.593 272.559,523.897 272.442,524.334C272.324,524.771 272.516,525.232 272.907,525.459C274.147,526.174 274.572,527.761 273.856,529C273.141,530.239 271.554,530.664 270.315,529.949C269.923,529.723 269.428,529.788 269.108,530.108C268.788,530.428 268.723,530.923 268.949,531.315C269.664,532.554 269.239,534.141 268,534.856C266.761,535.572 265.174,535.147 264.459,533.907C264.232,533.516 263.771,533.324 263.334,533.442C262.897,533.559 262.593,533.955 262.593,534.407C262.593,535.838 261.431,537 260,537C258.569,537 257.407,535.838 257.407,534.407C257.407,533.955 257.103,533.559 256.666,533.442C256.229,533.324 255.768,533.516 255.541,533.907C254.826,535.147 253.239,535.572 252,534.856C250.761,534.141 250.336,532.554 251.051,531.315C251.277,530.923 251.212,530.428 250.892,530.108C250.572,529.788 250.077,529.723 249.685,529.949C248.446,530.664 246.859,530.239 246.144,529C245.428,527.761 245.853,526.174 247.093,525.459C247.484,525.232 247.676,524.771 247.558,524.334C247.441,523.897 247.045,523.593 246.593,523.593C245.162,523.593 244,522.431 244,521C244,519.569 245.162,518.407 246.593,518.407C247.045,518.407 247.441,518.103 247.558,517.666C247.676,517.229 247.484,516.768 247.093,516.541C245.853,515.826 245.428,514.239 246.144,513C246.859,511.761 248.446,511.336 249.685,512.051C250.077,512.277 250.572,512.212 250.892,511.892C251.212,511.572 251.277,511.077 251.051,510.685C250.336,509.446 250.761,507.859 252,507.144C253.239,506.428 254.826,506.853 255.541,508.093ZM260,510C253.929,510 249,514.929 249,521C249,527.071 253.929,532 260,532C266.071,532 271,527.071 271,521C271,514.929 266.071,510 260,510ZM260,512C264.967,512 269,516.033 269,521C269,525.967 264.967,530 260,530C255.033,530 251,525.967 251,521C251,516.033 255.033,512 260,512ZM259,518L259,524C259,524.552 259.448,525 260,525C260.552,525 261,524.552 261,524L261,518C261,517.448 260.552,517 260,517C259.448,517 259,517.448 259,518ZM263,518L263,524C263,524.552 263.448,525 264,525C264.552,525 265,524.552 265,524L265,518C265,517.448 264.552,517 264,517C263.448,517 263,517.448 263,518ZM255,518L255,524C255,524.552 255.448,525 256,525C256.552,525 257,524.552 257,524L257,518C257,517.448 256.552,517 256,517C255.448,517 255,517.448 255,518Z"/></g><text x="0" y="79" fill="#000000" font-size="5px" font-weight="bold" font-family="'Helvetica Neue', Helvetica, Arial-Unicode, Arial, Sans-serif">Created by Blangcon</text><text x="0" y="84" fill="#000000" font-size="5px" font-weight="bold" font-family="'Helvetica Neue', Helvetica, Arial-Unicode, Arial, Sans-serif">from the Noun Project</text></svg>