<svg xmlns="http://www.w3.org/2000/svg" xmlns:xlink="http://www.w3.org/1999/xlink" version="1.1" x="0px" y="0px" fill="#fff" viewBox="0 0 550 687.5" style="enable-background:new 0 0 550 550;" xml:space="preserve"><g><g><g><path d="M275,530.943c-90.905,0-164.862-73.957-164.862-164.862S184.095,201.219,275,201.219s164.862,73.957,164.862,164.862     S365.905,530.943,275,530.943z M275,217.219c-82.083,0-148.862,66.779-148.862,148.862S192.917,514.943,275,514.943     s148.862-66.779,148.862-148.862S357.083,217.219,275,217.219z"/></g><g><path d="M275,490.463c-68.584,0-124.382-55.798-124.382-124.382S206.416,241.7,275,241.7     c68.584,0,124.382,55.797,124.382,124.381S343.584,490.463,275,490.463z M275,257.7c-59.762,0-108.382,48.62-108.382,108.381     S215.238,474.463,275,474.463s108.382-48.62,108.382-108.382S334.762,257.7,275,257.7z"/></g><g><path d="M350.901,236.771c-4.418,0-8-3.582-8-8v-39.792c0-6.75-5.491-12.24-12.24-12.24H219.339c-6.75,0-12.24,5.491-12.24,12.24     v39.792c0,4.418-3.582,8-8,8s-8-3.582-8-8v-39.792c0-15.572,12.668-28.24,28.24-28.24h111.322c15.571,0,28.24,12.668,28.24,28.24     v39.792C358.901,233.189,355.319,236.771,350.901,236.771z"/></g><g><path d="M300.301,176.738h-80.961c-3.03,0-5.8-1.712-7.155-4.422L141.343,30.634c-1.24-2.48-1.107-5.425,0.35-7.784     c1.458-2.358,4.033-3.794,6.805-3.794h80.961c3.03,0,5.8,1.712,7.155,4.422l70.841,141.682c1.24,2.48,1.107,5.425-0.35,7.784     C305.648,175.303,303.073,176.738,300.301,176.738z M224.284,160.738h63.073L224.515,35.056h-63.073L224.284,160.738z"/></g><g><path d="M259.826,176.74c-2.935,0-5.76-1.621-7.162-4.424L181.823,30.634c-1.976-3.952-0.375-8.757,3.578-10.733     c3.954-1.975,8.757-0.374,10.733,3.578l70.841,141.682c1.976,3.952,0.375,8.757-3.578,10.733     C262.249,176.468,261.028,176.74,259.826,176.74z"/></g><g><path d="M330.661,176.738H249.7c-4.418,0-8-3.582-8-8s3.582-8,8-8h76.017l62.841-125.682h-63.072l-43.33,86.659     c-1.976,3.952-6.78,5.554-10.733,3.578c-3.952-1.976-5.554-6.781-3.578-10.733l45.541-91.082c1.355-2.71,4.125-4.422,7.155-4.422     h80.961c2.772,0,5.348,1.436,6.806,3.794c1.457,2.359,1.59,5.304,0.35,7.784l-70.841,141.682     C336.462,175.026,333.691,176.738,330.661,176.738z"/></g><g><path d="M295.234,166.62c-1.203,0-2.423-0.272-3.572-0.847c-3.951-1.976-5.553-6.781-3.577-10.733l65.781-131.562     c1.976-3.952,6.78-5.552,10.733-3.578c3.951,1.976,5.553,6.781,3.577,10.733l-65.781,131.562     C300.994,164.999,298.169,166.62,295.234,166.62z"/></g><g><path d="M337.738,276.049c-1.271,0-2.559-0.303-3.758-0.943c-3.898-2.079-5.373-6.925-3.294-10.823l19.097-35.805     c2.079-3.899,6.925-5.373,10.823-3.294s5.373,6.925,3.294,10.823l-19.097,35.805     C343.364,274.511,340.598,276.049,337.738,276.049z"/></g><g><path d="M212.262,276.049c-2.859,0-5.626-1.537-7.065-4.237L186.1,236.007c-2.08-3.898-0.604-8.744,3.294-10.823     s8.744-0.605,10.823,3.294l19.097,35.805c2.08,3.898,0.604,8.744-3.294,10.823C214.821,275.746,213.532,276.049,212.262,276.049z     "/></g><g><path d="M356.849,507.928c-2.859,0-5.626-1.538-7.065-4.237l-19.097-35.805c-2.079-3.898-0.604-8.744,3.294-10.823     c3.897-2.079,8.744-0.605,10.823,3.294l19.097,35.805c2.079,3.898,0.604,8.744-3.294,10.823     C359.407,507.624,358.119,507.928,356.849,507.928z"/></g><g><path d="M193.151,507.928c-1.271,0-2.559-0.304-3.758-0.943c-3.898-2.079-5.374-6.925-3.294-10.823l19.097-35.805     c2.079-3.899,6.925-5.374,10.823-3.294c3.898,2.079,5.374,6.925,3.294,10.823l-19.097,35.805     C198.777,506.39,196.011,507.928,193.151,507.928z"/></g><g><g><path d="M275,429.742c-4.418,0-8-3.582-8-8v-97.536l-23.451,13.401c-3.835,2.191-8.723,0.86-10.915-2.978      c-2.192-3.836-0.859-8.723,2.977-10.915l35.42-20.24c2.477-1.413,5.519-1.404,7.985,0.027c2.467,1.431,3.984,4.067,3.984,6.919      v111.321C283,426.16,279.418,429.742,275,429.742z"/></g><g><path d="M305.36,429.742H244.64c-4.418,0-8-3.582-8-8s3.582-8,8-8h60.721c4.418,0,8,3.582,8,8S309.778,429.742,305.36,429.742z"/></g></g></g></g><text x="0" y="565" fill="#000000" font-size="5px" font-weight="bold" font-family="'Helvetica Neue', Helvetica, Arial-Unicode, Arial, Sans-serif">Created by Hina Ali</text><text x="0" y="570" fill="#000000" font-size="5px" font-weight="bold" font-family="'Helvetica Neue', Helvetica, Arial-Unicode, Arial, Sans-serif">from the Noun Project</text></svg>